<svg id="Слой_1" data-name="Слой 1" xmlns="http://www.w3.org/2000/svg" width="123" height="25.92" viewBox="0 0 123 25.92"><defs><style>.cls-1{fill:#565aef}.cls-2{fill:#353f47}</style></defs><path class="cls-1" d="M125.1,22.32h-2.95l-1.48-3.68h-7.13l-1.46,3.68h-2.82l6.29-15.5h3.17Zm-5.45-6.24L117.1,9.73l-2.55,6.35Z" transform="translate(-7.5 -1.59)"/><path class="cls-1" d="M130.5,22.32h-2.77V6.82h2.77Z" transform="translate(-7.5 -1.59)"/><path class="cls-2" d="M48,13.19c-1.79-.43-3.37-.8-3.37-2.06,0-1.7,2.07-1.87,3-1.87a6.06,6.06,0,0,1,2.87.58L52.92,8a10.52,10.52,0,0,0-5.35-1.54c-4.69,0-6.36,2.5-6.36,4.84,0,3.36,2.92,4.06,5.5,4.67,1.78.44,3.38.82,3.38,2.1,0,.66-.4,1.78-3,1.78a8.92,8.92,0,0,1-5-1.59l-1.14,2.6a10.59,10.59,0,0,0,6.13,1.78c3.89,0,6.41-1.89,6.41-4.81,0-3.33-2.93-4-5.51-4.62" transform="translate(-7.5 -1.59)"/><path class="cls-2" d="M67.72,14.3l-.16-.05.15-.08a3.72,3.72,0,0,0,2-3.4c0-2.52-2.14-4-5.72-4H56.59v15.6h7.83c3.89,0,6-1.51,6-4.23a3.83,3.83,0,0,0-2.74-3.82M60,9.34h3.57c2.26,0,2.73,1.05,2.73,1.91,0,1.26-.94,1.91-2.73,1.91H60Zm0,3.82h3.57m.61,6.59h-4.2v-4h4.2c1.92,0,2.89.67,2.89,2s-.94,2-2.89,2" transform="translate(-7.5 -1.59)"/><path class="cls-2" d="M74.36 7.76L77.89 5.16 66.09 5.16 66.09 20.75 77.89 20.75 77.89 18.16 69.46 18.16 69.46 14.17 76.65 14.17 76.65 11.56 69.46 11.56 69.46 7.76 74.36 7.76z"/><path class="cls-2" d="M101.78,22.35l-3.42-5.07a5.11,5.11,0,0,0,3.19-5c0-3.44-2.55-5.58-6.65-5.58H88.48v15.6h3.36V17.89h3.35l3,4.46Zm-9.94-13h3c2.16,0,3.34,1.07,3.34,3s-1.18,3-3.34,3h-3Z" transform="translate(-7.5 -1.59)"/><path class="cls-2" d="M33.42,14.55a13,13,0,0,0-.21-2.33l-2.79,2.06v.27a10,10,0,1,1-10-10,9.86,9.86,0,0,1,5.61,1.73L28.6,4.46a13,13,0,1,0,4.82,10.09" transform="translate(-7.5 -1.59)"/><path class="cls-2" d="M30.72,6.63A12.87,12.87,0,0,1,32.26,9.2L20.45,17.9l-4.94-3.09V11.09l4.94,3.09Z" transform="translate(-7.5 -1.59)"/></svg>